<svg width="112" height="108" viewBox="0 0 112 108" fill="none" xmlns="http://www.w3.org/2000/svg">
<path d="M5.51777 87.4906L63.6739 13.0542V29.1224C61.908 29.894 60.6739 31.6561 60.6739 33.7063C60.6739 34.8359 61.0485 35.878 61.6802 36.7152L27.7644 80.1254C25.8979 79.6462 23.8406 80.275 22.5783 81.8906C20.8782 84.0667 21.264 87.2089 23.4401 88.909C25.6161 90.6091 28.7583 90.2233 30.4584 88.0473C31.7198 86.4327 31.8329 84.2863 30.9185 82.5917L65.2213 38.6861C65.3704 38.6995 65.5214 38.7063 65.6739 38.7063C68.4354 38.7063 70.6739 36.4678 70.6739 33.7063C70.6739 33.1301 70.5765 32.5766 70.3971 32.0615L95.4462 0H111.942L53.4043 74.9254C51.5377 74.4462 49.4805 75.075 48.2182 76.6906C46.9557 78.3065 46.8435 80.4552 47.7604 82.1505L27.5646 108H0V94.7435C1.83202 95.1625 3.82473 94.5261 5.05826 92.9472C6.31993 91.3323 6.43281 89.1854 5.51777 87.4906Z" fill="white"/>
<path d="M90.3652 0H73.8729L67.6739 7.9344V29.0436L90.3652 0Z" fill="white"/>
<path d="M54.9686 83.9059C55.3875 83.6212 55.7698 83.2676 56.0983 82.8471C57.3606 81.2314 57.473 79.083 56.5564 77.3878L72.2516 57.299L111.864 108H73.7932L54.9686 83.9059Z" fill="white"/>
<path d="M30 0V49.6532L2.36427 85.0254C1.58552 84.8254 0.773567 84.8184 0 84.9954V0H30Z" fill="white"/>
</svg>
